<svg xmlns="http://www.w3.org/2000/svg" width="200" height="200" class="icon" viewBox="0 0 1024 1024" data-c="1"><path fill="#EF995B" d="M793.89 200.38c27.648 20.616 42.195 32.71 63.78 56.12 25.314 27.453 43.243 48.52 64.503 86.508 44.538 79.58 53.528 136.949 53.518 212.063 0 64.934-15.453 130.46-40.138 187.312-22.076 50.842-61.546 104.36-101.887 138.934-45.506 39.002-81.214 60.463-137.605 81.827-55.7 21.102-114.07 28.641-181.38 27.79-68.274-.862-129.364-11.04-180.533-31.804-46.16-18.731-98.34-46.828-141.597-87.542-43.946-41.36-70.369-75.958-93.881-127.198-26.158-57.004-40.094-129.066-39.68-191.781 0-36.98 4.033-70.902 12.252-105.242 8.533-35.651 20.07-69.573 38.131-102.353 18.857-34.22 36.755-62.067 58.87-88.973 23.249-28.285 39.21-46.418 64.295-63.476 18.298-12.443 36.88-9.295 47.2-2.306 4.403 2.982 8.919 6.578 12.933 12.933 9.572 15.156-.335 29.77-6.69 38.466-7.15 9.78-23.13 26.023-38.74 43.218-38.192 42.076-55.133 65.965-74.986 106.966-30.772 63.552-37.495 115.718-38.131 166.574-.669 53.517 9.995 99.647 27.428 140.483 33.916 80.573 94.808 144.443 175.27 178.616 41.109 17.846 113.813 37.32 181.961 38.132 56.194.669 125.92-11.322 166.574-28.097 45.936-18.955 97.224-56.863 127.104-94.325 23.014-28.853 52.18-70.91 64.414-105.695 14.864-42.26 24.807-87.661 24.56-132.459 0-54.414-11.534-108.417-36.918-156.856-20.168-38.483-46.481-74.608-84.67-108.048-13.377-11.714-23.822-20.067-38.808-31.62-10.191-7.857-36.06-25.027-28.923-47.326 4.97-15.532 18.303-25.295 31.888-27.205 19.456-2.736 28.565 2.427 43.705 12.041zM510.754 531.657c-8.696-.669-10.034-.446-20.738-6.69-11.031-6.434-17.84-21.183-16.514-35.174V92.22c0-18.178.387-22.816 8.988-31.685 5.352-5.52 10.963-11.382 26.09-11.54 16.056-.167 21.407 3.846 27.93 9.7 9.707 8.711 10.703 17.56 10.377 33.525v397.572c-.51 15.274.326 22.967-11.38 33.503-3.885 3.495-8.028 7.693-20.962 8.362zm4.454.574"/></svg>